<svg xmlns="http://www.w3.org/2000/svg" class="icon" viewBox="0 0 1024 1024">
  <path fill="#4A5699" d="M964.75 210.3H61.96a46.3 46.3 0 0 0-46.3 46.3v6.52a46.3 46.3 0 0 0 46.3 46.3h902.8a46.3 46.3 0 0 0 46.29-46.3v-6.52a46.3 46.3 0 0 0-46.3-46.3z"/>
  <path fill="#C45FA0" d="M964.75 828.89H61.96a46.3 46.3 0 0 0-46.3 46.3v6.51a46.3 46.3 0 0 0 46.3 46.3h902.8a46.3 46.3 0 0 0 46.29-46.3v-6.52a46.3 46.3 0 0 0-46.3-46.3z"/>
  <path fill="#6277BA" d="M68.56 210.3h-6.6a46.3 46.3 0 0 0-46.3 46.3v625.1a46.3 46.3 0 0 0 46.3 46.3h6.6a46.3 46.3 0 0 0 46.3-46.3V256.6a46.3 46.3 0 0 0-46.3-46.3zm896.2 0h-6.61a46.3 46.3 0 0 0-46.3 46.3v625.1a46.3 46.3 0 0 0 46.3 46.3h6.6a46.3 46.3 0 0 0 46.3-46.3V256.6a46.3 46.3 0 0 0-46.3-46.3z"/>
  <path fill="#F0D043" d="M155.9 396.56a49.6 49.55 0 1 0 99.2 0 49.6 49.55 0 1 0-99.2 0Z"/>
  <path fill="#F39A2B" d="M739.1 111.2H284.42a46.3 46.3 0 0 0-46.3 46.29V164a46.3 46.3 0 0 0 46.3 46.3h454.7a46.3 46.3 0 0 0 46.3-46.3v-6.51a46.3 46.3 0 0 0-46.3-46.3zM607.59 569.65c.03 55.42-41.43 99.9-95.96 102.04-55.4 2.17-99.97-43.03-102.05-95.96-1.14-29.08-23.42-53.4-53.39-53.4-28.24 0-54.53 24.3-53.39 53.4 4.44 113.05 94.81 202.82 208.83 202.74 113.14-.08 202.82-98.1 202.74-208.82-.05-68.86-106.83-68.86-106.78 0z"/>
  <path fill="#E5594F" d="M411.07 564.36a100.8 100.8 0 0 1 99.04-99.03c54.42-1.05 98 46.2 99.03 99.03 1.32 68.77 108.1 68.9 106.78 0-2.19-113.55-92.27-203.63-205.81-205.82-113.54-2.18-203.7 95.57-205.82 205.82-1.33 68.9 105.46 68.77 106.78 0z"/>
</svg>
